<svg width="300" height="200" viewBox="0 0 300 200" xmlns="http://www.w3.org/2000/svg">
  <!-- Background -->
  <rect width="300" height="200" fill="#F9FAFC"/>
  
  <!-- Grid pattern -->
  <pattern id="grid" width="20" height="20" patternUnits="userSpaceOnUse">
    <path d="M 20 0 L 0 0 0 20" fill="none" stroke="#E8EAED" stroke-width="1"/>
  </pattern>
  <rect width="300" height="200" fill="url(#grid)" opacity="0.5"/>
  
  <!-- Gradients -->
  <defs>
    <linearGradient id="gradient-primary" x1="0%" y1="0%" x2="100%" y2="100%">
      <stop offset="0%" stop-color="#0066CC" />
      <stop offset="100%" stop-color="#0099FF" />
    </linearGradient>
    <linearGradient id="gradient-secondary" x1="0%" y1="0%" x2="100%" y2="100%">
      <stop offset="0%" stop-color="#FF6600" />
      <stop offset="100%" stop-color="#FF9933" />
    </linearGradient>
    <linearGradient id="gradient-accent" x1="0%" y1="0%" x2="100%" y2="100%">
      <stop offset="0%" stop-color="#CC0000" />
      <stop offset="100%" stop-color="#FF3333" />
    </linearGradient>
  </defs>
  
  <!-- Document stack shadow -->
  <rect x="75" y="45" width="150" height="120" rx="4" ry="4" fill="#E0E0E0"/>
  
  <!-- Document stack -->
  <g transform="translate(70, 40)">
    <!-- Document 1 (bottom) -->
    <rect x="0" y="0" width="150" height="120" fill="#FFFFFF" stroke="#E0E0E0" stroke-width="1" rx="4" ry="4"/>
    
    <!-- Document 2 (middle) -->
    <rect x="5" y="-5" width="150" height="120" fill="#FFFFFF" stroke="#E0E0E0" stroke-width="1" rx="4" ry="4"/>
    
    <!-- Document 3 (top) -->
    <rect x="10" y="-10" width="150" height="120" fill="#FFFFFF" stroke="url(#gradient-primary)" stroke-width="2" rx="4" ry="4"/>
    
    <!-- Document content -->
    <g transform="translate(10, -10)">
      <!-- Header -->
      <rect x="20" y="20" width="110" height="20" fill="url(#gradient-primary)" rx="4" ry="4"/>
      <rect x="30" y="27" width="90" height="6" fill="#FFFFFF" opacity="0.5" rx="2" ry="2"/>
      
      <!-- Content -->
      <rect x="20" y="50" width="110" height="5" fill="#E0E0E0" rx="2" ry="2"/>
      <rect x="20" y="60" width="110" height="5" fill="#E0E0E0" rx="2" ry="2"/>
      <rect x="20" y="70" width="80" height="5" fill="#E0E0E0" rx="2" ry="2"/>
      
      <!-- Footer -->
      <rect x="20" y="85" width="110" height="15" fill="url(#gradient-secondary)" opacity="0.2" rx="4" ry="4"/>
      <rect x="30" y="90" width="90" height="5" fill="#4A4A4A" opacity="0.5" rx="2" ry="2"/>
    </g>
  </g>
  
  <!-- Printer icon -->
  <g transform="translate(220, 140)">
    <rect x="0" y="0" width="40" height="30" fill="#2A2A2A" rx="4" ry="4"/>
    <rect x="5" y="5" width="30" height="10" fill="#4A4A4A" rx="2" ry="2"/>
    <rect x="10" y="20" width="20" height="5" fill="url(#gradient-accent)" rx="1" ry="1"/>
    <path d="M 15 0 L 15 -15 L 25 -15 L 25 0" fill="none" stroke="url(#gradient-primary)" stroke-width="2"/>
  </g>
</svg>