<svg width="500" height="300" viewBox="0 0 500 300" xmlns="http://www.w3.org/2000/svg">
  <!-- Background -->
  <rect width="500" height="300" fill="#F9FAFC"/>
  
  <!-- Grid pattern -->
  <pattern id="grid" width="20" height="20" patternUnits="userSpaceOnUse">
    <path d="M 20 0 L 0 0 0 20" fill="none" stroke="#E8EAED" stroke-width="1"/>
  </pattern>
  <rect width="500" height="300" fill="url(#grid)" opacity="0.5"/>
  
  <!-- Gradients -->
  <defs>
    <linearGradient id="gradient-primary" x1="0%" y1="0%" x2="100%" y2="100%">
      <stop offset="0%" stop-color="#0066CC" />
      <stop offset="100%" stop-color="#0099FF" />
    </linearGradient>
    <linearGradient id="gradient-secondary" x1="0%" y1="0%" x2="100%" y2="100%">
      <stop offset="0%" stop-color="#FF6600" />
      <stop offset="100%" stop-color="#FF9933" />
    </linearGradient>
    <linearGradient id="gradient-accent" x1="0%" y1="0%" x2="100%" y2="100%">
      <stop offset="0%" stop-color="#CC0000" />
      <stop offset="100%" stop-color="#FF3333" />
    </linearGradient>
  </defs>
  
  <!-- Photocopier machine -->
  <g transform="translate(50, 50)">
    <!-- Machine body -->
    <rect x="0" y="0" width="180" height="200" fill="#2A2A2A" rx="8" ry="8"/>
    
    <!-- Control panel -->
    <rect x="20" y="20" width="140" height="40" fill="#4A4A4A" rx="4" ry="4"/>
    <circle cx="40" cy="40" r="10" fill="url(#gradient-primary)"/>
    <circle cx="70" cy="40" r="10" fill="url(#gradient-secondary)"/>
    <circle cx="100" cy="40" r="10" fill="url(#gradient-accent)"/>
    <rect x="120" y="30" width="30" height="20" fill="#E0E0E0" rx="2" ry="2"/>
    
    <!-- Paper tray -->
    <rect x="-10" y="80" width="200" height="10" fill="#4A4A4A" rx="2" ry="2"/>
    <rect x="20" y="90" width="140" height="5" fill="#E0E0E0"/>
    
    <!-- Output tray -->
    <rect x="-10" y="140" width="200" height="10" fill="#4A4A4A" rx="2" ry="2"/>
    <rect x="20" y="150" width="140" height="5" fill="#E0E0E0"/>
    
    <!-- Scanner lid -->
    <rect x="20" y="180" width="140" height="20" fill="url(#gradient-primary)" rx="4" ry="4"/>
    <rect x="30" y="185" width="120" height="10" fill="#FFFFFF" opacity="0.3" rx="2" ry="2"/>
  </g>
  
  <!-- Document stack -->
  <g transform="translate(280, 50)">
    <!-- Original document -->
    <rect x="0" y="0" width="170" height="200" fill="#FFFFFF" stroke="#E0E0E0" stroke-width="1" rx="4" ry="4"/>
    
    <!-- Document content -->
    <rect x="20" y="20" width="130" height="20" fill="#E0E0E0" rx="2" ry="2"/>
    <rect x="20" y="50" width="130" height="10" fill="#E0E0E0" rx="2" ry="2"/>
    <rect x="20" y="70" width="130" height="10" fill="#E0E0E0" rx="2" ry="2"/>
    <rect x="20" y="90" width="130" height="10" fill="#E0E0E0" rx="2" ry="2"/>
    
    <!-- Copy process visualization -->
    <g transform="translate(85, 120)">
      <path d="M 0 0 L 0 30" stroke="url(#gradient-secondary)" stroke-width="2" stroke-dasharray="4 2"/>
      <path d="M -10 15 L 0 30 L 10 15" fill="none" stroke="url(#gradient-secondary)" stroke-width="2"/>
    </g>
    
    <!-- Copies -->
    <g transform="translate(20, 160)">
      <rect x="0" y="0" width="40" height="30" fill="#FFFFFF" stroke="url(#gradient-primary)" stroke-width="1" rx="2" ry="2"/>
      <rect x="5" y="5" width="30" height="5" fill="#E0E0E0" rx="1" ry="1"/>
      <rect x="5" y="15" width="30" height="3" fill="#E0E0E0" rx="1" ry="1"/>
      <rect x="5" y="22" width="30" height="3" fill="#E0E0E0" rx="1" ry="1"/>
    </g>
    
    <g transform="translate(65, 160)">
      <rect x="0" y="0" width="40" height="30" fill="#FFFFFF" stroke="url(#gradient-primary)" stroke-width="1" rx="2" ry="2"/>
      <rect x="5" y="5" width="30" height="5" fill="#E0E0E0" rx="1" ry="1"/>
      <rect x="5" y="15" width="30" height="3" fill="#E0E0E0" rx="1" ry="1"/>
      <rect x="5" y="22" width="30" height="3" fill="#E0E0E0" rx="1" ry="1"/>
    </g>
    
    <g transform="translate(110, 160)">
      <rect x="0" y="0" width="40" height="30" fill="#FFFFFF" stroke="url(#gradient-primary)" stroke-width="1" rx="2" ry="2"/>
      <rect x="5" y="5" width="30" height="5" fill="#E0E0E0" rx="1" ry="1"/>
      <rect x="5" y="15" width="30" height="3" fill="#E0E0E0" rx="1" ry="1"/>
      <rect x="5" y="22" width="30" height="3" fill="#E0E0E0" rx="1" ry="1"/>
    </g>
  </g>
</svg>